<?xml version="1.0" encoding="UTF-8" standalone="no"?>
<!DOCTYPE svg PUBLIC "-//W3C//DTD SVG 1.1//EN" "http://www.w3.org/Graphics/SVG/1.1/DTD/svg11.dtd">
<svg width="100%" height="100%" viewBox="0 0 320 320" version="1.1" xmlns="http://www.w3.org/2000/svg" xmlns:xlink="http://www.w3.org/1999/xlink" xml:space="preserve" xmlns:serif="http://www.serif.com/" style="fill-rule:evenodd;clip-rule:evenodd;stroke-linejoin:round;stroke-miterlimit:2;">
    <g>
        <g transform="matrix(-1.3365,0,0,1.37738,272.623,51.6648)">
            <path d="M155.25,8.059C154.838,8.092 142.575,16.681 128,27.146C113.425,37.61 91.15,53.056 78.5,61.469C65.85,69.882 49.875,80.122 43,84.224C36.125,88.326 25.663,94.229 19.75,97.341L9,103L8.344,107.75C7.984,110.363 8.202,115.425 8.83,119C9.457,122.575 11.023,127.075 12.309,129L14.648,132.5L10.26,146C7.846,153.425 4.549,164.9 2.933,171.5C1.317,178.1 -0.005,184.288 -0.003,185.25C-0.001,186.213 0.788,187.407 1.75,187.905C2.713,188.403 7.325,189.366 12,190.044C16.887,190.753 23.582,191.006 27.75,190.639C31.737,190.287 36.575,189.325 38.5,188.5L42,187L40.512,184.25C39.693,182.738 38.583,176.775 38.045,171C37.507,165.225 37.044,158.025 37.016,155L36.964,149.5L40.596,153C42.594,154.925 48.596,161.9 53.934,168.5C59.272,175.1 65.408,181.927 67.57,183.67C69.731,185.414 73.75,187.859 76.5,189.103C80.134,190.747 83.959,191.477 90.5,191.773C97.104,192.072 100.632,191.757 103.75,190.59C106.35,189.618 108.194,188.223 108.5,187C108.775,185.9 108.662,184.459 108.25,183.798C107.838,183.137 105.7,181.827 103.5,180.887C101.3,179.947 95.055,174.976 89.622,169.839C84.19,164.703 77.726,157.8 75.259,154.5C72.792,151.2 69.308,145.575 67.518,142C65.727,138.425 63.979,134.6 63.632,133.5L63.002,131.5L69.251,130.826C72.688,130.455 79.775,128.721 85,126.973C90.225,125.225 96.375,123.729 98.666,123.648C100.958,123.566 103.208,123.858 103.666,124.296C104.125,124.734 102.984,131.259 101.131,138.796C98.384,149.971 97.854,153.792 98.257,159.5C98.528,163.35 99.369,167.762 100.125,169.305C101.044,171.179 102.661,172.406 105,173.001C106.925,173.492 109.8,174.93 111.389,176.197C112.977,177.463 115.677,180.881 117.389,183.79C119.139,186.766 121.375,189.254 122.5,189.478C123.6,189.697 128.1,190.086 132.5,190.342C136.9,190.598 141.738,190.4 143.25,189.904C144.763,189.407 146,188.55 146,188C146,187.45 144.471,182.387 142.603,176.75C140.735,171.113 138.481,162.9 137.595,158.5C136.708,154.1 135.549,146 135.017,140.5C134.486,135 134.037,127.35 134.018,123.5C133.994,118.572 134.48,115.76 135.658,114C136.579,112.625 139.916,108.8 143.073,105.5C146.231,102.2 149.531,97.813 150.407,95.75C151.283,93.688 151.993,90.537 151.983,88.75C151.974,86.963 151.42,83.7 150.752,81.5C149.939,78.822 147.052,74.926 142.019,69.71C137.883,65.426 135.063,61.939 135.75,61.96C136.438,61.982 138.013,62.529 139.25,63.176C140.488,63.824 144.313,66.749 147.75,69.676C151.188,72.604 154.338,74.993 154.75,74.985C155.163,74.976 156.175,74.541 157,74.017C157.869,73.465 158.467,71.683 158.421,69.782C158.377,67.977 158.015,63.35 157.617,59.5C157.218,55.65 157.254,51.942 157.696,51.26C158.138,50.577 163.675,48.618 170,46.905C176.325,45.193 181.624,43.726 181.775,43.646C181.926,43.566 181.365,42.15 180.528,40.5C179.691,38.85 177.01,33.225 174.57,28C172.032,22.564 168.502,16.832 166.317,14.6C164.218,12.455 161.038,10.093 159.25,9.35C157.463,8.608 155.663,8.027 155.25,8.059ZM179,47.692C178.725,47.401 177.6,47.789 176.5,48.553C175.4,49.318 172.475,50.213 170,50.543C167.525,50.873 164.488,51.336 163.25,51.572C161.251,51.952 161.069,52.419 161.62,55.75C161.999,58.049 161.381,63.756 160.021,70.5L157.804,81.5L161,89L166,89C168.75,89 172.611,88.213 174.579,87.25C176.909,86.111 178.823,84.104 180.065,81.5C181.457,78.58 181.965,75.341 181.949,69.5C181.937,65.1 181.381,58.512 180.713,54.86C180.046,51.208 179.275,47.982 179,47.692ZM156.5,91.333C155.95,91.121 155.195,93.097 154.823,95.724L154.146,100.5L147.087,107C143.205,110.575 140.022,113.838 140.014,114.25C140.006,114.662 141.338,116.912 142.973,119.25C144.703,121.724 146.95,127.261 148.351,132.5C149.674,137.45 151.721,146 152.901,151.5C154.081,157 156.078,163.75 157.339,166.5C158.6,169.25 161.275,173.075 163.282,175C165.29,176.925 166.957,179.4 166.987,180.5C167.018,181.6 165.673,183.85 164,185.5C162.327,187.15 160.967,188.838 160.979,189.25C160.99,189.663 167.637,190.004 175.75,190.008L190.5,190.017L199.5,185.5L199.206,181C199.044,178.525 197.405,172 195.563,166.5C193.722,161 188.146,147.725 183.172,137C178.198,126.275 172.75,113.338 171.064,108.25C169.379,103.162 168,98.1 168,97C168,95.9 167.438,94.839 166.75,94.641C166.063,94.444 163.7,93.705 161.5,93C159.3,92.294 157.05,91.544 156.5,91.333Z" style="fill-rule:nonzero;"/>
            <path d="M155.25,8.059C154.838,8.092 142.575,16.681 128,27.146C113.425,37.61 91.15,53.056 78.5,61.469C65.85,69.882 49.875,80.122 43,84.224C36.125,88.326 25.663,94.229 19.75,97.341L9,103L8.344,107.75C7.984,110.363 8.202,115.425 8.83,119C9.457,122.575 11.023,127.075 12.309,129L14.648,132.5L10.26,146C7.846,153.425 4.549,164.9 2.933,171.5C1.317,178.1 -0.005,184.288 -0.003,185.25C-0.001,186.213 0.788,187.407 1.75,187.905C2.713,188.403 7.325,189.366 12,190.044C16.887,190.753 23.582,191.006 27.75,190.639C31.737,190.287 36.575,189.325 38.5,188.5L42,187L40.512,184.25C39.693,182.738 38.583,176.775 38.045,171C37.507,165.225 37.044,158.025 37.016,155L36.964,149.5L40.596,153C42.594,154.925 48.596,161.9 53.934,168.5C59.272,175.1 65.408,181.927 67.57,183.67C69.731,185.414 73.75,187.859 76.5,189.103C80.134,190.747 83.959,191.477 90.5,191.773C97.104,192.072 100.632,191.757 103.75,190.59C106.35,189.618 108.194,188.223 108.5,187C108.775,185.9 108.662,184.459 108.25,183.798C107.838,183.137 105.7,181.827 103.5,180.887C101.3,179.947 95.055,174.976 89.622,169.839C84.19,164.703 77.726,157.8 75.259,154.5C72.792,151.2 69.308,145.575 67.518,142C65.727,138.425 63.979,134.6 63.632,133.5L63.002,131.5L69.251,130.826C72.688,130.455 79.775,128.721 85,126.973C90.225,125.225 96.375,123.729 98.666,123.648C100.958,123.566 103.208,123.858 103.666,124.296C104.125,124.734 102.984,131.259 101.131,138.796C98.384,149.971 97.854,153.792 98.257,159.5C98.528,163.35 99.369,167.762 100.125,169.305C101.044,171.179 102.661,172.406 105,173.001C106.925,173.492 109.8,174.93 111.389,176.197C112.977,177.463 115.677,180.881 117.389,183.79C119.139,186.766 121.375,189.254 122.5,189.478C123.6,189.697 128.1,190.086 132.5,190.342C136.9,190.598 141.738,190.4 143.25,189.904C144.763,189.407 146,188.55 146,188C146,187.45 144.471,182.387 142.603,176.75C140.735,171.113 138.481,162.9 137.595,158.5C136.708,154.1 135.549,146 135.017,140.5C134.486,135 134.037,127.35 134.018,123.5C133.994,118.572 134.48,115.76 135.658,114C136.579,112.625 139.916,108.8 143.073,105.5C146.231,102.2 149.531,97.813 150.407,95.75C151.283,93.688 151.993,90.537 151.983,88.75C151.974,86.963 151.42,83.7 150.752,81.5C149.939,78.822 147.052,74.926 142.019,69.71C137.883,65.426 135.063,61.939 135.75,61.96C136.438,61.982 138.013,62.529 139.25,63.176C140.488,63.824 144.313,66.749 147.75,69.676C151.188,72.604 154.338,74.993 154.75,74.985C155.163,74.976 156.175,74.541 157,74.017C157.869,73.465 158.467,71.683 158.421,69.782C158.377,67.977 158.015,63.35 157.617,59.5C157.218,55.65 157.254,51.942 157.696,51.26C158.138,50.577 163.675,48.618 170,46.905C176.325,45.193 181.624,43.726 181.775,43.646C181.926,43.566 181.365,42.15 180.528,40.5C179.691,38.85 177.01,33.225 174.57,28C172.032,22.564 168.502,16.832 166.317,14.6C164.218,12.455 161.038,10.093 159.25,9.35C157.463,8.608 155.663,8.027 155.25,8.059ZM179,47.692C178.725,47.401 177.6,47.789 176.5,48.553C175.4,49.318 172.475,50.213 170,50.543C167.525,50.873 164.488,51.336 163.25,51.572C161.251,51.952 161.069,52.419 161.62,55.75C161.999,58.049 161.381,63.756 160.021,70.5L157.804,81.5L161,89L166,89C168.75,89 172.611,88.213 174.579,87.25C176.909,86.111 178.823,84.104 180.065,81.5C181.457,78.58 181.965,75.341 181.949,69.5C181.937,65.1 181.381,58.512 180.713,54.86C180.046,51.208 179.275,47.982 179,47.692ZM156.5,91.333C155.95,91.121 155.195,93.097 154.823,95.724L154.146,100.5L147.087,107C143.205,110.575 140.022,113.838 140.014,114.25C140.006,114.662 141.338,116.912 142.973,119.25C144.703,121.724 146.95,127.261 148.351,132.5C149.674,137.45 151.721,146 152.901,151.5C154.081,157 156.078,163.75 157.339,166.5C158.6,169.25 161.275,173.075 163.282,175C165.29,176.925 166.957,179.4 166.987,180.5C167.018,181.6 165.673,183.85 164,185.5C162.327,187.15 160.967,188.838 160.979,189.25C160.99,189.663 167.637,190.004 175.75,190.008L190.5,190.017L199.5,185.5L199.206,181C199.044,178.525 197.405,172 195.563,166.5C193.722,161 188.146,147.725 183.172,137C178.198,126.275 172.75,113.338 171.064,108.25C169.379,103.162 168,98.1 168,97C168,95.9 167.438,94.839 166.75,94.641C166.063,94.444 163.7,93.705 161.5,93C159.3,92.294 157.05,91.544 156.5,91.333Z" style="fill-rule:nonzero;"/>
        </g>
        <g id="レイヤー2">
            <g transform="matrix(1.05603,0,0,1.07328,-17.5108,-0.416891)">
                <g>
                    <g transform="matrix(0.707107,0.707107,-0.707107,0.707107,191.071,-72.1665)">
                        <rect x="129.371" y="34.535" width="21.853" height="157.343"/>
                    </g>
                    <g transform="matrix(1.20833,0,0,1.20833,-58.2386,-7.52269)">
                        <path d="M222.902,10.934C269.217,10.934 306.818,48.536 306.818,94.85C306.818,141.165 269.217,178.766 222.902,178.766C176.588,178.766 138.986,141.165 138.986,94.85C138.986,48.536 176.588,10.934 222.902,10.934ZM222.902,31.913C257.638,31.913 285.839,60.114 285.839,94.85C285.839,129.586 257.638,157.787 222.902,157.787C188.166,157.787 159.965,129.586 159.965,94.85C159.965,60.114 188.166,31.913 222.902,31.913Z"/>
                    </g>
                </g>
                <g>
                    <g transform="matrix(0.707107,0.707107,-0.707107,0.707107,191.071,-72.1665)">
                        <rect x="129.371" y="34.535" width="21.853" height="157.343"/>
                    </g>
                    <g transform="matrix(1.20833,0,0,1.20833,-58.2386,-7.52269)">
                        <path d="M222.902,10.934C269.217,10.934 306.818,48.536 306.818,94.85C306.818,141.165 269.217,178.766 222.902,178.766C176.588,178.766 138.986,141.165 138.986,94.85C138.986,48.536 176.588,10.934 222.902,10.934ZM222.902,31.913C257.638,31.913 285.839,60.114 285.839,94.85C285.839,129.586 257.638,157.787 222.902,157.787C188.166,157.787 159.965,129.586 159.965,94.85C159.965,60.114 188.166,31.913 222.902,31.913Z"/>
                    </g>
                </g>
            </g>
        </g>
    </g>
</svg>
